<svg xmlns="http://www.w3.org/2000/svg" width="86" height="86" viewBox="0 0 86 86">
  <g id="Group_45072" data-name="Group 45072" transform="translate(-191 -1030)">
    <path id="Path_57" data-name="Path 57" d="M706.447,1273.89a43,43,0,1,1,43-43,43.048,43.048,0,0,1-43,43m0-84a41,41,0,1,0,41,41,41.047,41.047,0,0,0-41-41" transform="translate(-472.447 -157.89)" fill="#656566"/>
    <g id="graduation" transform="translate(207 1054)">
      <g id="Group_44886" data-name="Group 44886">
        <path id="Path_27020" data-name="Path 27020" d="M53.156,85.049,41.714,81.182a.794.794,0,0,0-.508,1.5l11.332,3.83-5.334,2.6a2.41,2.41,0,0,0-.74-.334l-16-4.182a3.424,3.424,0,0,0-6.787.641v.017a2.035,2.035,0,0,0,2.043,2.008h2.763a2.022,2.022,0,0,0,1.8-1.073l14.921,3.9L28.552,98.211a3.3,3.3,0,0,1-2.9,0L1.664,86.517,26.04,78.278a3.33,3.33,0,0,1,2.121,0l9.517,3.217a.794.794,0,1,0,.508-1.5L28.67,76.774a4.929,4.929,0,0,0-3.138,0L1.046,85.049a1.542,1.542,0,0,0-.182,2.844L13.43,94.02a75.111,75.111,0,0,1-2.894,9.966,3.139,3.139,0,0,0,1.007,3.555,39.906,39.906,0,0,0,12.3,6.467,10.671,10.671,0,0,0,6.509,0,39.913,39.913,0,0,0,12.3-6.467,3.139,3.139,0,0,0,1.007-3.555,75.148,75.148,0,0,1-2.894-9.966l5.911-2.882v11.95a1.961,1.961,0,0,0-1.809,1.952v2.314a1.171,1.171,0,0,0,.385.868l-.295,4.459a1.513,1.513,0,0,0,1.509,1.612H48.48a1.513,1.513,0,0,0,1.508-1.612l-.295-4.459a1.171,1.171,0,0,0,.385-.868v-2.314a1.961,1.961,0,0,0-1.809-1.952V91.121a2.407,2.407,0,0,0-.107-.7l5.175-2.523a1.542,1.542,0,0,0-.182-2.845Zm-24.674.63H25.72a.449.449,0,0,1-.455-.424v-.013a1.819,1.819,0,0,1,.578-1.337,1.838,1.838,0,0,1,3.092,1.246A.451.451,0,0,1,28.482,85.679Zm12.8,16.266A37.514,37.514,0,0,1,28.8,108.1a.794.794,0,0,0,.3,1.56,39.108,39.108,0,0,0,12.715-6.13c.111.316.239.677.357,1a1.555,1.555,0,0,1-.5,1.762,38.447,38.447,0,0,1-11.809,6.2,9.085,9.085,0,0,1-5.535,0,38.45,38.45,0,0,1-11.809-6.2,1.555,1.555,0,0,1-.5-1.762l.014-.038c.115-.316.243-.675.343-.959A39.165,39.165,0,0,0,25.1,109.664a.794.794,0,1,0,.3-1.56,37.526,37.526,0,0,1-12.475-6.16A74.619,74.619,0,0,0,14.9,94.737l10.052,4.9a4.87,4.87,0,0,0,4.3,0l10.051-4.9A74.591,74.591,0,0,0,41.279,101.945Zm5.274,10.761.276-4.175h1.294l.276,4.175Zm1.938-7.665v1.9h-2.03v-1.9a.377.377,0,0,1,.372-.372h1.287A.377.377,0,0,1,48.491,105.041Z" transform="translate(0 -76.517)" fill="#656566"/>
      </g>
    </g>
    <g id="Group_45502" data-name="Group 45502" transform="translate(198 1037)">
      <g id="graduation-2" data-name="graduation" transform="translate(9 17)">
        <g id="Group_44886-2" data-name="Group 44886">
          <path id="Path_27020-2" data-name="Path 27020" d="M53.156,85.049,41.714,81.182a.794.794,0,0,0-.508,1.5l11.332,3.83-5.334,2.6a2.41,2.41,0,0,0-.74-.334l-16-4.182a3.424,3.424,0,0,0-6.787.641v.017a2.035,2.035,0,0,0,2.043,2.008h2.763a2.022,2.022,0,0,0,1.8-1.073l14.921,3.9L28.552,98.211a3.3,3.3,0,0,1-2.9,0L1.664,86.517,26.04,78.278a3.33,3.33,0,0,1,2.121,0l9.517,3.217a.794.794,0,1,0,.508-1.5L28.67,76.774a4.929,4.929,0,0,0-3.138,0L1.046,85.049a1.542,1.542,0,0,0-.182,2.844L13.43,94.02a75.111,75.111,0,0,1-2.894,9.966,3.139,3.139,0,0,0,1.007,3.555,39.906,39.906,0,0,0,12.3,6.467,10.671,10.671,0,0,0,6.509,0,39.913,39.913,0,0,0,12.3-6.467,3.139,3.139,0,0,0,1.007-3.555,75.148,75.148,0,0,1-2.894-9.966l5.911-2.882v11.95c-1.01.077,2.6.077,1.588,0V91.121a2.407,2.407,0,0,0-.107-.7l5.175-2.523a1.542,1.542,0,0,0-.182-2.845Zm-24.674.63H25.72a.449.449,0,0,1-.455-.424v-.013a1.819,1.819,0,0,1,.578-1.337,1.838,1.838,0,0,1,3.092,1.246A.451.451,0,0,1,28.482,85.679Zm12.8,16.266A37.514,37.514,0,0,1,28.8,108.1a.794.794,0,0,0,.3,1.56,39.108,39.108,0,0,0,12.715-6.13c.111.316.239.677.357,1a1.555,1.555,0,0,1-.5,1.762,38.447,38.447,0,0,1-11.809,6.2,9.085,9.085,0,0,1-5.535,0,38.45,38.45,0,0,1-11.809-6.2,1.555,1.555,0,0,1-.5-1.762l.014-.038c.115-.316.243-.675.343-.959A39.165,39.165,0,0,0,25.1,109.664a.794.794,0,1,0,.3-1.56,37.526,37.526,0,0,1-12.475-6.16A74.619,74.619,0,0,0,14.9,94.737l10.052,4.9a4.87,4.87,0,0,0,4.3,0l10.051-4.9A74.591,74.591,0,0,0,41.279,101.945Z" transform="translate(0 -76.517)" fill="#656566"/>
        </g>
      </g>
      <g id="graduation-3" data-name="graduation" transform="translate(8.958 16.844)">
        <g id="Group_44886-3" data-name="Group 44886" transform="translate(44.873 26.505)">
          <path id="Path_27020-3" data-name="Path 27020" d="M46.711,103.09a1.993,1.993,0,0,0-1.838,1.984v2.351a1.19,1.19,0,0,0,.392.882l-.3,4.531a1.537,1.537,0,0,0,1.533,1.638h2.041a1.537,1.537,0,0,0,1.533-1.638l-.3-4.531a1.19,1.19,0,0,0,.392-.882v-2.351a1.993,1.993,0,0,0-1.839-1.984A4.964,4.964,0,0,0,46.711,103.09Zm-.131,9.772.281-4.243h1.314l.281,4.243Zm1.97-7.788v1.932H46.486v-1.932a.383.383,0,0,1,.378-.378h1.308A.383.383,0,0,1,48.55,105.073Z" transform="translate(-44.873 -103.022)" fill="#e31e24"/>
        </g>
      </g>
    </g>
  </g>
</svg>
