<svg xmlns="http://www.w3.org/2000/svg" width="86" height="86" viewBox="0 0 86 86">
  <g id="Group_45116" data-name="Group 45116" transform="translate(-191 -2575)">
    <path id="Path_64" data-name="Path 64" d="M706.447,2818.542a43,43,0,1,1,43-43,43.049,43.049,0,0,1-43,43m0-84a41,41,0,1,0,41,41,41.047,41.047,0,0,0-41-41" transform="translate(-472.447 -157.542)" fill="#656566"/>
    <g id="who" transform="translate(154.927 2553.753)">
      <g id="Group_45115" data-name="Group 45115" transform="translate(44.414 27.173)">
        <path id="Path_27124" data-name="Path 27124" d="M110.464,98.2h-5.049V78a1.121,1.121,0,0,0-.26-.718l-5.61-6.732a1.122,1.122,0,0,0-1.279-.324l-5.61,2.244a1.122,1.122,0,0,0,.834,2.084l4.853-1.942,4.828,5.793V98.2h-6.3a1.557,1.557,0,0,1-1.555-1.555v-1.8A13.348,13.348,0,0,0,90.9,85.053a19.58,19.58,0,0,1-6.187-15.82A19.807,19.807,0,0,1,102.05,51.2a20.379,20.379,0,0,1,2.242-.124,1.122,1.122,0,0,0,0-2.244,22.839,22.839,0,0,0-2.489.137,22.081,22.081,0,0,0-19.329,20.1,21.817,21.817,0,0,0,6.9,17.624,11.127,11.127,0,0,1,3.7,8.15v1.8a3.8,3.8,0,0,0,2.387,3.52,2.68,2.68,0,0,0,.433,2.523,2.778,2.778,0,0,0-.575,1.683,2.81,2.81,0,0,0,2.244,2.748v1.226a3.322,3.322,0,0,0,3.318,3.318h6.827a3.322,3.322,0,0,0,3.318-3.318v-1.226a2.809,2.809,0,0,0,2.244-2.748,2.778,2.778,0,0,0-.575-1.683,2.778,2.778,0,0,0,.575-1.683,2.808,2.808,0,0,0-2.8-2.8Zm0,2.244a.561.561,0,1,1,0,1.122H98.122a.561.561,0,1,1,0-1.122Zm-2.757,8.976H100.88a1.076,1.076,0,0,1-1.074-1.074v-1.17h8.976v1.17A1.076,1.076,0,0,1,107.707,109.415Zm2.757-4.488H98.122a.561.561,0,1,1,0-1.122h12.342a.561.561,0,1,1,0,1.122Z" transform="translate(-71.756 -42.755)" fill="#656566"/>
        <path id="Path_27125" data-name="Path 27125" d="M104.217,85.2a17.93,17.93,0,0,0-3.227,5.14,1.122,1.122,0,1,0,2.075.855,15.689,15.689,0,0,1,2.824-4.5,1.122,1.122,0,1,0-1.672-1.5Z" transform="translate(-85.06 -68.654)" fill="#e31e24"/>
        <path id="Path_27126" data-name="Path 27126" d="M127.144,68.584a17.959,17.959,0,0,0-3.846,1.975,1.122,1.122,0,1,0,1.258,1.858,15.668,15.668,0,0,1,3.364-1.728,1.122,1.122,0,0,0-.776-2.106Z" transform="translate(-100.817 -56.918)" fill="#e31e24"/>
        <path id="Path_27127" data-name="Path 27127" d="M193.382,65.518a8.081,8.081,0,0,0-3.966-2.166,6.149,6.149,0,0,0-1.73-4.925,1.059,1.059,0,0,0-.114-.174,5.61,5.61,0,0,0-5.055-1.561,5.171,5.171,0,0,0-1.5-3.538c-2.044-2.044-6.066-1.888-8.276.324a1.122,1.122,0,0,0-.329.793V94.661a1.122,1.122,0,0,0,.611,1,7.316,7.316,0,0,0,3.26.782,5.008,5.008,0,0,0,3.609-1.355,5.685,5.685,0,0,0,.582-.681,6.673,6.673,0,0,0,8.887-7.97c.149-.125.29-.254.425-.389a6.86,6.86,0,0,0,1.684-7.133,9.092,9.092,0,0,0,1.619-1.285,8.581,8.581,0,0,0,.293-12.111ZM190.1,77.089a6.105,6.105,0,0,0-3.661-1.259,6.232,6.232,0,0,0-4.375,1.781,1.122,1.122,0,0,0,1.577,1.6,3.927,3.927,0,0,1,5.49-.018,4.557,4.557,0,0,1-.933,5.272,4.867,4.867,0,0,1-.8.638,1.122,1.122,0,0,0-.4,1.413,4.411,4.411,0,0,1-5.655,5.824s0,0,0-.006l.009-1.468a4.419,4.419,0,0,0-4.387-4.441h-.007a1.122,1.122,0,0,0-.007,2.244,2.172,2.172,0,0,1,2.157,2.184l-.009,1.468c0,.009.005.017.005.026a1.108,1.108,0,0,0-.074.1,3.54,3.54,0,0,1-.725,1.058,3.67,3.67,0,0,1-3.65.42V54.777c1.4-1.073,3.68-1.13,4.774-.036a3.06,3.06,0,0,1,.689,3.076,5.482,5.482,0,0,0-.482.389,5.61,5.61,0,0,0-.049,7.934,1.122,1.122,0,1,0,1.6-1.577,3.352,3.352,0,0,1,1.672-5.643,3.856,3.856,0,0,1,4.165,5.06,1.122,1.122,0,0,0,1,1.433,5.808,5.808,0,0,1,3.771,1.693,6.339,6.339,0,0,1-.293,8.938A6.818,6.818,0,0,1,190.1,77.089Z" transform="translate(-136.51 -44.831)" fill="#656566"/>
      </g>
    </g>
  </g>
</svg>
