<svg xmlns="http://www.w3.org/2000/svg" width="86" height="86" viewBox="0 0 86 86">
  <g id="Group_45118" data-name="Group 45118" transform="translate(-191 -2205)">
    <path id="Path_63" data-name="Path 63" d="M706.447,2448.539a43,43,0,1,1,43-43,43.049,43.049,0,0,1-43,43m0-84a41,41,0,1,0,41,41,41.047,41.047,0,0,0-41-41" transform="translate(-472.447 -157.539)" fill="#656566"/>
    <g id="search" transform="translate(208.88 2223)">
      <g id="Group_45089" data-name="Group 45089" transform="translate(0.12 0)">
        <g id="Group_45088" data-name="Group 45088" transform="translate(0 0)">
          <path id="Path_27119" data-name="Path 27119" d="M49.06,43.617,40,34.555A.978.978,0,0,0,38.644,33.2l-2.418-2.418a19.746,19.746,0,0,0,.252-21.705.978.978,0,1,0-1.644,1.057,17.789,17.789,0,1,1-5.585-5.505A.977.977,0,1,0,30.28,2.97a19.738,19.738,0,1,0,.6,33.157l2.406,2.406a.976.976,0,0,0,1.38,1.38l9.049,9.049a3.728,3.728,0,0,0,2.646,1.092,3.784,3.784,0,0,0,2.7-6.438ZM32.9,35.38,35.476,32.8l1.77,1.77L34.666,37.15ZM47.658,47.562a1.814,1.814,0,0,1-2.562.019l-9.048-9.048,2.581-2.581L47.677,45A1.814,1.814,0,0,1,47.658,47.562Z" transform="translate(-0.12 0)" fill="#656566"/>
        </g>
      </g>
      <g id="Group_45091" data-name="Group 45091" transform="translate(32.149 5.496)">
        <g id="Group_45090" data-name="Group 45090">
          <path id="Path_27120" data-name="Path 27120" d="M329.429,56.524l-.021-.021a.977.977,0,0,0-1.387,1.378l.025.026a.978.978,0,0,0,1.382-1.382Z" transform="translate(-327.737 -56.214)" fill="#656566"/>
        </g>
      </g>
      <g id="Group_45093" data-name="Group 45093" transform="translate(4.813 4.693)">
        <g id="Group_45092" data-name="Group 45092">
          <path id="Path_27121" data-name="Path 27121" d="M63.071,47.981A15.053,15.053,0,1,0,78.124,63.034,15.07,15.07,0,0,0,63.071,47.981Zm0,28.151a13.1,13.1,0,1,1,13.1-13.1A13.113,13.113,0,0,1,63.071,76.132Z" transform="translate(-48.018 -47.981)" fill="#656566"/>
        </g>
      </g>
      <g id="graduation" transform="translate(9.195 12.264)">
        <g id="Group_44886" data-name="Group 44886">
          <path id="Path_27020" data-name="Path 27020" d="M20.932,79.877l-4.506-1.523a.313.313,0,1,0-.2.592l4.462,1.508-2.1,1.024a.949.949,0,0,0-.291-.132L12,79.7a1.348,1.348,0,0,0-2.672.252v.007a.8.8,0,0,0,.8.791h1.088a.8.8,0,0,0,.708-.423L17.8,81.864l-6.556,3.2a1.3,1.3,0,0,1-1.143,0l-9.445-4.6,9.6-3.244a1.311,1.311,0,0,1,.835,0l3.748,1.267a.313.313,0,1,0,.2-.592L11.29,76.618a1.941,1.941,0,0,0-1.236,0L.412,79.877A.607.607,0,0,0,.34,81l4.948,2.413a29.577,29.577,0,0,1-1.14,3.924,1.236,1.236,0,0,0,.4,1.4A15.714,15.714,0,0,0,9.39,91.281a4.2,4.2,0,0,0,2.563,0A15.717,15.717,0,0,0,16.8,88.734a1.236,1.236,0,0,0,.4-1.4,29.592,29.592,0,0,1-1.14-3.924l2.328-1.135v4.706a.772.772,0,0,0-.712.769v.911a.461.461,0,0,0,.152.342l-.116,1.756a.6.6,0,0,0,.594.635h.791a.6.6,0,0,0,.594-.635L19.568,89a.461.461,0,0,0,.152-.342v-.911a.772.772,0,0,0-.712-.769V82.268a.948.948,0,0,0-.042-.278L21,81A.607.607,0,0,0,20.932,79.877Zm-9.716.248H10.128a.177.177,0,0,1-.179-.167v-.005a.716.716,0,0,1,.228-.527.724.724,0,0,1,1.217.491A.178.178,0,0,1,11.216,80.125Zm5.039,6.4a14.772,14.772,0,0,1-4.912,2.425.313.313,0,0,0,.117.614,15.4,15.4,0,0,0,5.007-2.414c.044.125.094.266.14.393a.612.612,0,0,1-.2.694,15.14,15.14,0,0,1-4.65,2.443,3.577,3.577,0,0,1-2.179,0,15.141,15.141,0,0,1-4.65-2.443.612.612,0,0,1-.2-.694l.005-.015c.045-.124.1-.266.135-.378A15.422,15.422,0,0,0,9.883,89.57.313.313,0,0,0,10,88.955,14.777,14.777,0,0,1,5.088,86.53a29.383,29.383,0,0,0,.779-2.838l3.958,1.93a1.918,1.918,0,0,0,1.691,0l3.958-1.93A29.371,29.371,0,0,0,16.255,86.53Zm2.077,4.237.109-1.644h.509l.109,1.644Zm.763-3.018V88.5h-.8v-.749a.148.148,0,0,1,.146-.146h.507A.148.148,0,0,1,19.095,87.749Z" transform="translate(0 -76.517)" fill="#e31e24" stroke="#e31e24" stroke-width="0.2"/>
        </g>
      </g>
    </g>
  </g>
</svg>
