<svg xmlns="http://www.w3.org/2000/svg" width="86" height="86" viewBox="0 0 86 86">
  <g id="Group_45077" data-name="Group 45077" transform="translate(-191 -1402)">
    <path id="Path_58" data-name="Path 58" d="M706.447,1645.416a43,43,0,1,1,43-43,43.049,43.049,0,0,1-43,43m0-84a41,41,0,1,0,41,41,41.047,41.047,0,0,0-41-41" transform="translate(-472.447 -157.416)" fill="#656566"/>
    <g id="scope" transform="translate(207.8 1394.381)">
      <g id="Group_45079" data-name="Group 45079" transform="translate(44.958 44.377)">
        <g id="Group_45078" data-name="Group 45078">
          <path id="Path_27114" data-name="Path 27114" d="M433.735,194.526l-.009-.035a1.041,1.041,0,1,0-2.022.5l.006.025a1.041,1.041,0,1,0,2.024-.491Z" transform="translate(-431.674 -193.7)" fill="#e31e24"/>
        </g>
      </g>
      <g id="Group_45081" data-name="Group 45081" transform="translate(13.226 46.766)">
        <g id="Group_45080" data-name="Group 45080">
          <path id="Path_27115" data-name="Path 27115" d="M133.207,228.047A8.552,8.552,0,0,1,129.517,218a1.041,1.041,0,1,0-1.974-.664,10.636,10.636,0,0,0,4.589,12.491,1.041,1.041,0,0,0,1.076-1.783Z" transform="translate(-126.99 -216.631)" fill="#e31e24"/>
        </g>
      </g>
      <g id="Group_45083" data-name="Group 45083" transform="translate(19.468 40.243)">
        <g id="Group_45082" data-name="Group 45082">
          <path id="Path_27116" data-name="Path 27116" d="M198.587,156.891a10.635,10.635,0,0,0-10.981-2.224,1.041,1.041,0,1,0,.726,1.952,8.552,8.552,0,0,1,8.828,1.789,1.041,1.041,0,1,0,1.428-1.516Z" transform="translate(-186.927 -154.004)" fill="#e31e24"/>
        </g>
      </g>
      <g id="Group_45085" data-name="Group 45085" transform="translate(0 27.018)">
        <g id="Group_45084" data-name="Group 45084">
          <path id="Path_27117" data-name="Path 27117" d="M52.282,51.179H44.447V49.024a1.9,1.9,0,0,0-1.9-1.9h-1.4A17.7,17.7,0,0,0,20.671,33.448a1.041,1.041,0,1,0,.372,2.049A15.625,15.625,0,0,1,39.014,47.125H33.329a1.9,1.9,0,0,0-1.9,1.9v2.154H23.6a1.041,1.041,0,0,0-1.041,1.041v6.388a3.7,3.7,0,0,0,1,2.531v5.344A15.624,15.624,0,0,1,8.542,47.735,1.041,1.041,0,0,0,6.5,47.319,17.7,17.7,0,0,0,23.555,68.565v3.774a2.372,2.372,0,0,0,.018.288A21.769,21.769,0,0,1,4.829,40.275l3.514,3.53a1.041,1.041,0,0,0,.738.307h6.55l6.421,6.421a1.041,1.041,0,0,0,1.473-1.473L17.1,42.64V36.09a1.041,1.041,0,0,0-.306-.737l-3.523-3.515A21.779,21.779,0,0,1,43.6,41.723a1.041,1.041,0,0,0,1.89-.876A23.861,23.861,0,0,0,11.746,30.313l-3-2.99a1.041,1.041,0,0,0-1.777.737v5.9H1.052a1.041,1.041,0,0,0-.738,1.776l2.992,3.007A23.85,23.85,0,0,0,23.847,74.713h26.1a2.378,2.378,0,0,0,2.376-2.376V61.14a3.683,3.683,0,0,0,1-2.533V52.22h0A1.041,1.041,0,0,0,52.282,51.179ZM9.054,30.57l5.966,5.951v4.031l-5.966-5.98ZM7.581,36.045l5.967,5.984H9.514L3.557,36.045ZM33.513,49.208h8.852v1.971H33.513ZM50.24,67.632H43.406a1.041,1.041,0,1,0,0,2.083H50.24v2.624a.293.293,0,0,1-.293.293H25.919a.293.293,0,0,1-.282-.292V62.264a3.72,3.72,0,0,0,.626.054h8.588a3.109,3.109,0,0,0,6.174-.007l8.585.005h0a3.752,3.752,0,0,0,.626-.053v5.369ZM36.912,61.946V60.115h2.053v1.831a1.027,1.027,0,1,1-2.053,0Zm14.328-3.339a1.627,1.627,0,0,1-1.627,1.627h0l-8.564-.005v-.954a1.243,1.243,0,0,0-1.242-1.242H36.071a1.243,1.243,0,0,0-1.242,1.242v.961H26.264a1.629,1.629,0,0,1-1.627-1.627V53.262h26.6v5.345Z" transform="translate(0 -27.018)" fill="#656566"/>
        </g>
      </g>
      <g id="Group_45087" data-name="Group 45087" transform="translate(37.262 67.632)">
        <g id="Group_45086" data-name="Group 45086">
          <path id="Path_27118" data-name="Path 27118" d="M359.564,417.287a1.041,1.041,0,1,0,.305.736A1.049,1.049,0,0,0,359.564,417.287Z" transform="translate(-357.786 -416.982)" fill="#656566"/>
        </g>
      </g>
    </g>
  </g>
</svg>
