<svg xmlns="http://www.w3.org/2000/svg" width="86" height="86" viewBox="0 0 86 86">
  <g id="Group_45112" data-name="Group 45112" transform="translate(-191 -1908)">
    <path id="Path_62" data-name="Path 62" d="M706.447,2152.224a43,43,0,1,1,43-43,43.049,43.049,0,0,1-43,43m0-84a41,41,0,1,0,41,41,41.047,41.047,0,0,0-41-41" transform="translate(-472.447 -158.224)" fill="#656566"/>
    <g id="jobrole" transform="translate(208 1925)">
      <g id="XMLID_1454_">
        <g id="XMLID_58_">
          <path id="XMLID_82_" d="M50.035,20.543h-3a21.488,21.488,0,0,0-2.266-5.473l2.123-2.123a2.036,2.036,0,0,0,0-2.877L42,5.18a2.036,2.036,0,0,0-2.876,0L37,7.3a21.488,21.488,0,0,0-5.473-2.266v-3A2.036,2.036,0,0,0,29.492,0H22.577a2.036,2.036,0,0,0-2.034,2.034v3.01a21.484,21.484,0,0,0-5.464,2.269L12.947,5.18a2.036,2.036,0,0,0-2.877,0L5.18,10.07a2.036,2.036,0,0,0,0,2.876l2.139,2.14a21.482,21.482,0,0,0-2.256,5.457H2.034A2.036,2.036,0,0,0,0,22.577v6.915a2.036,2.036,0,0,0,2.034,2.034H5.07a21.485,21.485,0,0,0,2.259,5.447L5.18,39.122A2.036,2.036,0,0,0,5.18,42l4.89,4.89a2.036,2.036,0,0,0,2.876,0L15.1,44.74A21.485,21.485,0,0,0,20.543,47v3.036a2.036,2.036,0,0,0,2.034,2.034h6.915a2.036,2.036,0,0,0,2.034-2.034V47.006a21.482,21.482,0,0,0,5.457-2.256l2.139,2.139a2.036,2.036,0,0,0,2.877,0L46.889,42a2.036,2.036,0,0,0,0-2.876L44.757,36.99a21.484,21.484,0,0,0,2.269-5.464h3.01a2.036,2.036,0,0,0,2.034-2.034V22.577A2.036,2.036,0,0,0,50.035,20.543Zm0,8.949H46.224a1.017,1.017,0,0,0-.993.8,19.483,19.483,0,0,1-2.618,6.3,1.017,1.017,0,0,0,.138,1.267l2.7,2.7-4.89,4.89-2.705-2.705a1.017,1.017,0,0,0-1.266-.139,19.483,19.483,0,0,1-6.3,2.6,1.017,1.017,0,0,0-.8.993v3.831H22.577V46.2a1.017,1.017,0,0,0-.8-.993A19.485,19.485,0,0,1,15.49,42.6a1.017,1.017,0,0,0-1.266.138l-2.715,2.715-4.89-4.89,2.715-2.715a1.017,1.017,0,0,0,.138-1.266,19.487,19.487,0,0,1-2.608-6.29,1.017,1.017,0,0,0-.993-.8H2.034V22.577H5.865a1.017,1.017,0,0,0,.993-.8,19.482,19.482,0,0,1,2.6-6.3,1.017,1.017,0,0,0-.139-1.266L6.619,11.509l4.89-4.89,2.7,2.7a1.017,1.017,0,0,0,1.267.138,19.481,19.481,0,0,1,6.3-2.618,1.017,1.017,0,0,0,.8-.993V2.034h6.915V5.839a1.017,1.017,0,0,0,.8.993A19.483,19.483,0,0,1,36.6,9.446a1.017,1.017,0,0,0,1.266-.138l2.69-2.69,4.89,4.89-2.69,2.69a1.017,1.017,0,0,0-.138,1.266,19.485,19.485,0,0,1,2.614,6.314,1.017,1.017,0,0,0,.993.8h3.805Z" fill="#656566"/>
          <path id="XMLID_88_" d="M129.551,115.314a1.017,1.017,0,1,0-.644,1.929,12.809,12.809,0,0,1,6.129,19.92,4.163,4.163,0,0,0-3.183-3.3l-3.448-.754a5.073,5.073,0,0,0,1.531-3.633v-3.316a3.528,3.528,0,0,0,.627-2.011v-2.7a1.017,1.017,0,0,0-1.017-1.017h-5.431a4.36,4.36,0,0,0-4.355,4.355v1.889a.922.922,0,0,1,0,.266v2.529a5.073,5.073,0,0,0,1.527,3.63l-3.447.756a4.164,4.164,0,0,0-3.18,3.3,12.809,12.809,0,0,1,6.709-20.1,1.017,1.017,0,1,0-.551-1.958,14.95,14.95,0,0,0-7.749,5.254A14.71,14.71,0,0,0,110,129.4a14.865,14.865,0,0,0,14.83,14.848h.018a14.85,14.85,0,0,0,4.7-28.935ZM133.07,137.9v1.32a12.761,12.761,0,0,1-6.716,2.905l2.633-6.808,2.431.532A2.112,2.112,0,0,1,133.07,137.9Zm-5.168-8.425a3.054,3.054,0,1,1-6.109,0V127.7h5.221a3.54,3.54,0,0,0,.888-.112v1.891Zm-4.654,4.83a5.069,5.069,0,0,0,3.181.006,2.087,2.087,0,0,0,.581.482l-2.174,5.62-2.174-5.62A2.087,2.087,0,0,0,123.248,134.305Zm-1.455-9.514a2.324,2.324,0,0,1,2.321-2.321h4.415v1.678a1.516,1.516,0,0,1-1.514,1.514h-5.221v-.872Zm-3.518,11.057,2.41-.529,2.632,6.8a12.76,12.76,0,0,1-6.691-2.9V137.9A2.112,2.112,0,0,1,118.275,135.849Z" transform="translate(-98.813 -103.367)" fill="#e31e24"/>
          <path id="XMLID_1046_" d="M250.1,112.034a1.017,1.017,0,1,0-.719-.3A1.025,1.025,0,0,0,250.1,112.034Z" transform="translate(-223.749 -98.813)" fill="#656566"/>
        </g>
      </g>
    </g>
  </g>
</svg>
