<svg xmlns="http://www.w3.org/2000/svg" width="204.739" height="79.417" viewBox="0 0 204.739 79.417">
  <g id="Group_44833" data-name="Group 44833" transform="translate(-160 -118.838)">
    <path id="Path_177" data-name="Path 177" d="M839.5,282.911h.837a1.342,1.342,0,0,0,.819-.182.576.576,0,0,0,.219-.473.6.6,0,0,0-.1-.342.63.63,0,0,0-.29-.223,2.176,2.176,0,0,0-.7-.073H839.5Zm-.69,2.4v-4.277h1.469a3.612,3.612,0,0,1,1.092.116,1.092,1.092,0,0,1,.538.416,1.109,1.109,0,0,1,.2.626,1.136,1.136,0,0,1-.336.818,1.335,1.335,0,0,1-.887.391,1.131,1.131,0,0,1,.362.225,4.989,4.989,0,0,1,.635.849l.521.836h-.845l-.379-.672a3.527,3.527,0,0,0-.721-1,.9.9,0,0,0-.555-.146h-.4v1.816Zm1.745-5.517a3.376,3.376,0,0,0-1.632.432,3.068,3.068,0,0,0-1.242,1.224,3.37,3.37,0,0,0-.448,1.665,3.321,3.321,0,0,0,.441,1.646,3.1,3.1,0,0,0,1.23,1.229,3.314,3.314,0,0,0,3.3,0,3.106,3.106,0,0,0,1.227-1.229,3.325,3.325,0,0,0-.009-3.311,3.041,3.041,0,0,0-1.241-1.224,3.382,3.382,0,0,0-1.626-.432m0-.658a4.1,4.1,0,0,1,1.954.512,3.681,3.681,0,0,1,1.486,1.472,4.058,4.058,0,0,1,.532,1.995A4,4,0,0,1,844,285.1a3.679,3.679,0,0,1-1.469,1.473,3.986,3.986,0,0,1-3.958,0A3.673,3.673,0,0,1,837.1,285.1a3.976,3.976,0,0,1,.008-3.97,3.661,3.661,0,0,1,1.49-1.472,4.089,4.089,0,0,1,1.955-.512m-33.937,54.517v-.831h.43a6.693,6.693,0,0,0,3.078-.521,1.681,1.681,0,0,0,.893-1.724v-12.8a1.919,1.919,0,0,0-.893-1.724,7.618,7.618,0,0,0-3.078-.433h-.43V314.8h28.027v5.691h-1.263a5.409,5.409,0,0,0-3.26-3.6c-1.385-.617-4.092-.895-8.092-.895h-.37a5.551,5.551,0,0,0-2.153.247c-.367.183-.552.615-.552,1.26v5.876h.552a11.492,11.492,0,0,0,4.954-.738,5.582,5.582,0,0,0,2.245-3.23h1.261V328.8h-1.261a7.252,7.252,0,0,0-2.245-3.446,11.6,11.6,0,0,0-4.954-.8h-.552v5.937c0,.862.216,1.384.615,1.63a6.764,6.764,0,0,0,2.891.461,26.121,26.121,0,0,0,8.029-1.015,12.957,12.957,0,0,0,5.415-3.877l1.17.186L836,330.766l-1.077,2.892h-28.3ZM784.252,323.9h1.631c2.523,0,4.277-.306,5.322-.984a3.361,3.361,0,0,0,1.6-3.228,3.124,3.124,0,0,0-1.509-2.8,7.768,7.768,0,0,0-4.244-.895,4.344,4.344,0,0,0-2.247.247c-.37.183-.554.615-.554,1.26Zm-7.844,6.677v-12.8a1.912,1.912,0,0,0-.892-1.724,7.61,7.61,0,0,0-3.076-.433h-.43V314.8h15.657c4.584,0,8,.431,10.275,1.262,2.307.86,3.446,2.153,3.446,3.875q0,2.446-3.968,3.783a18.652,18.652,0,0,1-3.447.739l6.954,6.123a9.748,9.748,0,0,0,2.523,1.724,4.911,4.911,0,0,0,2.245.521h.185v.831h-9.907l-10.55-8.676h-1.171v5.6a1.793,1.793,0,0,0,.892,1.724,6.358,6.358,0,0,0,3.077.521h.462v.831H772.01v-.831h.43a6.683,6.683,0,0,0,3.076-.521,1.676,1.676,0,0,0,.892-1.724m-24.948,0V316h-.185a14.265,14.265,0,0,0-6.308,1.076,4.775,4.775,0,0,0-2.707,3.6h-1.63V314.8h29.38v5.876h-1.447a5,5,0,0,0-2.709-3.6A13.887,13.887,0,0,0,759.641,316H759.3v14.582c0,.892.276,1.476.892,1.724a6.211,6.211,0,0,0,3.045.521h.462v.831h-16.49v-.831h.462a5.341,5.341,0,0,0,2.861-.521,1.652,1.652,0,0,0,.924-1.724m-39.5-.617a2.55,2.55,0,0,0,.833,2.155,6.374,6.374,0,0,0,3.136.707h.37v.831H705.5v-.831h.431A6.011,6.011,0,0,0,709,332.12a2.485,2.485,0,0,0,.893-2.155V317.6c-.43-.245-1.26-.737-2.521-1.537a4.728,4.728,0,0,0-1.969-.433h-.094V314.8H715.68l17.106,11.907v-8.185a2.686,2.686,0,0,0-.892-2.185,5.215,5.215,0,0,0-3.076-.708h-.433V314.8h10.8v.829h-.431a5.416,5.416,0,0,0-3.077.708,2.755,2.755,0,0,0-.892,2.185v15.567h-1.261l-21.566-15.134Zm-38.638,3.693v-.831h.431a6.679,6.679,0,0,0,3.075-.521,1.674,1.674,0,0,0,.894-1.724v-12.8a1.91,1.91,0,0,0-.894-1.724,7.588,7.588,0,0,0-3.075-.433h-.431V314.8h28.118v5.691h-1.352a5.414,5.414,0,0,0-3.262-3.6c-1.385-.617-4.093-.895-8.093-.895h-.368a5.545,5.545,0,0,0-2.154.247,1.34,1.34,0,0,0-.645,1.26v5.876h.645a11.492,11.492,0,0,0,4.954-.738,5.576,5.576,0,0,0,2.244-3.23h1.263V328.8h-1.263a7.388,7.388,0,0,0-2.337-3.446,10.576,10.576,0,0,0-4.861-.8h-.645v5.937c0,.862.246,1.384.707,1.63a6.779,6.779,0,0,0,2.892.461,26.1,26.1,0,0,0,8.028-1.015,12.953,12.953,0,0,0,5.416-3.877l1.169.186-1.076,2.891-1.078,2.892h-28.3Zm133.116-27.5a2.56,2.56,0,0,0,.8,2.246,4.841,4.841,0,0,0,3.168.46c4.554-.184,7.968-1.352,10.276-3.507q3.6-3.6,3.6-11.166c0-4.708-1.17-8.369-3.508-11.013-2.43-2.461-5.877-3.694-10.367-3.694a6.223,6.223,0,0,0-3.168.554,2.565,2.565,0,0,0-.8,2.248Zm-11.353-.616V282.806a3.629,3.629,0,0,0-1.263-3.046,8.707,8.707,0,0,0-4.429-.923h-.707v-1.322h23.071c7.753,0,13.722,1.445,17.938,4.4a13.965,13.965,0,0,1,6.488,12.275c0,5.259-2.367,9.381-7.042,12.335-4.739,2.955-11.23,4.4-19.474,4.4H788.775v-1.417h.615a8.172,8.172,0,0,0,4.429-.924,3.473,3.473,0,0,0,1.263-3.044m-38.577.616c0,1.138.244,1.907.8,2.246a4.839,4.839,0,0,0,3.168.46c4.553-.184,7.968-1.352,10.274-3.507q3.6-3.413,3.6-11.166c0-4.83-1.168-8.492-3.505-11.013-2.431-2.461-5.845-3.694-10.276-3.694a6.481,6.481,0,0,0-3.261.554c-.555.339-.8,1.11-.8,2.248Zm-11.352-.616V282.806a3.626,3.626,0,0,0-1.262-3.046,8.79,8.79,0,0,0-4.432-.923h-.706v-1.322h23.072c7.692,0,13.691,1.445,18,4.4a14.121,14.121,0,0,1,6.428,12.275c0,5.259-2.368,9.381-7.044,12.335-4.738,2.955-11.228,4.4-19.473,4.4h-20.92v-1.417h.645a8.184,8.184,0,0,0,4.432-.924,3.47,3.47,0,0,0,1.262-3.044m-43.1-6.583h12.892L708.267,287.7h-.092Zm-7.29,6.583,16.858-28.855H713.5l17.66,28.855a9.38,9.38,0,0,0,2.521,3.044,4.488,4.488,0,0,0,2.985.924h.275v1.417H714.142v-1.417h.708c2.121,0,3.476-.338,4.152-1.015q.969-.968-.184-2.953L716.2,301.2H700.79l-2.428,4.337q-1.063,1.89,0,2.768c.768.677,2.337,1.077,4.675,1.2h.738v1.417H689.162v-1.417h.369a4.907,4.907,0,0,0,2.8-1.015,8.923,8.923,0,0,0,2.431-2.953m-10-1.015a23.7,23.7,0,0,1-8.767,5.321,33.006,33.006,0,0,1-11.168,1.724c-7.074,0-12.888-1.662-17.381-4.953-4.583-3.2-6.86-7.323-6.86-12.428,0-4.954,2.277-9.076,6.86-12.46,4.614-3.291,10.429-4.954,17.381-4.954a35.57,35.57,0,0,1,12,1.908,4.388,4.388,0,0,0,2.985.154,2.233,2.233,0,0,0,1.784-1.6l.185-.463h1.907v12.091h-1.907a16.01,16.01,0,0,0-6.122-7.415,19,19,0,0,0-9.753-2.614c-4.307,0-7.628,1.322-9.9,3.969-2.339,2.646-3.507,6.338-3.507,11.106q0,7.2,3.507,11.076c2.337,2.644,5.659,3.967,9.9,3.967a27.318,27.318,0,0,0,8.83-1.353,28.688,28.688,0,0,0,7.846-4.338ZM670.52,330.058a21.074,21.074,0,0,1-6.122,2.952,28.7,28.7,0,0,1-7.752.987c-4.954,0-8.923-.924-12-2.77-3.263-1.876-4.86-4.214-4.86-7.044s1.6-5.138,4.86-6.923c3.075-1.875,7.044-2.8,12-2.8a33.779,33.779,0,0,1,8.366.984,3.9,3.9,0,0,0,2.063.184,1.8,1.8,0,0,0,1.2-.891l.153-.277h1.263V321.2h-1.263a9.665,9.665,0,0,0-4.308-4.123,14.124,14.124,0,0,0-6.673-1.537,10.269,10.269,0,0,0-6.954,2.247,8.43,8.43,0,0,0-2.43,6.3,8.083,8.083,0,0,0,2.43,6.214,10.278,10.278,0,0,0,6.954,2.277,21.889,21.889,0,0,0,6.121-.831,16.169,16.169,0,0,0,5.414-2.429Z" transform="translate(-479.788 -157.847)" fill="#e31e24"/>
    <g id="Group_44832" data-name="Group 44832" transform="translate(-2.671)">
      <path id="Path_178" data-name="Path 178" d="M672.838,351.3a6.46,6.46,0,0,1-2.582-1.253,2.393,2.393,0,0,1-.807-1.834,2.529,2.529,0,0,1,.986-2.044,3.921,3.921,0,0,1,2.567-.808,4.3,4.3,0,0,1,1.923.417,3.177,3.177,0,0,1,1.308,1.149,2.946,2.946,0,0,1,.462,1.6h-1.386a1.915,1.915,0,0,0-.6-1.495,2.456,2.456,0,0,0-1.7-.543,2.512,2.512,0,0,0-1.591.451,1.5,1.5,0,0,0-.57,1.247,1.358,1.358,0,0,0,.543,1.084,5.315,5.315,0,0,0,1.846.809,8.566,8.566,0,0,1,2.04.808,3.092,3.092,0,0,1,1.091,1.03,2.645,2.645,0,0,1,.356,1.388,2.446,2.446,0,0,1-.991,2.037,4.233,4.233,0,0,1-2.651.764,4.9,4.9,0,0,1-2.01-.414,3.355,3.355,0,0,1-1.441-1.131,2.755,2.755,0,0,1-.506-1.628H670.5a1.8,1.8,0,0,0,.7,1.5,2.948,2.948,0,0,0,1.871.55,2.717,2.717,0,0,0,1.673-.445,1.452,1.452,0,0,0,.583-1.216,1.422,1.422,0,0,0-.539-1.188,6.182,6.182,0,0,0-1.954-.831" transform="translate(-472.447 -157.847)" fill="#656566"/>
      <path id="Path_179" data-name="Path 179" d="M680.717,352.358l-.835.871v2.729h-1.328V344.925h1.328V351.6l.712-.854,2.419-2.557h1.619l-3.026,3.246,3.377,4.526h-1.56Z" transform="translate(-472.447 -157.847)" fill="#656566"/>
      <path id="Path_180" data-name="Path 180" d="M686.2,346.124a.781.781,0,0,1,.2-.544.739.739,0,0,1,.585-.224.758.758,0,0,1,.589.224.783.783,0,0,1,.2.544.718.718,0,0,1-.79.754.748.748,0,0,1-.585-.215.76.76,0,0,1-.2-.539m1.436,9.834h-1.329v-7.772h1.329Z" transform="translate(-472.447 -157.847)" fill="#656566"/>
      <rect id="Rectangle_84" data-name="Rectangle 84" width="1.329" height="11.035" transform="translate(217.451 187.076)" fill="#656566"/>
      <rect id="Rectangle_85" data-name="Rectangle 85" width="1.329" height="11.035" transform="translate(221.028 187.076)" fill="#656566"/>
      <path id="Path_181" data-name="Path 181" d="M701.464,353.9a.975.975,0,0,0-.407-.836,3.9,3.9,0,0,0-1.414-.513,6.75,6.75,0,0,1-1.6-.516,2.313,2.313,0,0,1-.878-.721,1.721,1.721,0,0,1-.283-.992,2.014,2.014,0,0,1,.81-1.615,3.144,3.144,0,0,1,2.063-.659,3.248,3.248,0,0,1,2.145.681,2.168,2.168,0,0,1,.822,1.746h-1.336a1.2,1.2,0,0,0-.463-.942,1.737,1.737,0,0,0-1.168-.395,1.816,1.816,0,0,0-1.134.315,1,1,0,0,0-.41.828.808.808,0,0,0,.38.724,4.66,4.66,0,0,0,1.377.469,7.131,7.131,0,0,1,1.612.53,2.358,2.358,0,0,1,.916.743,1.829,1.829,0,0,1,.3,1.06,1.99,1.99,0,0,1-.833,1.67,3.5,3.5,0,0,1-2.163.628,3.88,3.88,0,0,1-1.65-.331,2.7,2.7,0,0,1-1.125-.921,2.233,2.233,0,0,1-.4-1.284h1.329a1.377,1.377,0,0,0,.535,1.06,2.072,2.072,0,0,0,1.316.392,2.129,2.129,0,0,0,1.211-.3.937.937,0,0,0,.457-.816" transform="translate(-472.447 -157.847)" fill="#656566"/>
      <path id="Path_182" data-name="Path 182" d="M708.08,355.958V345.5h2.951a4.772,4.772,0,0,1,2.414.6,4.109,4.109,0,0,1,1.62,1.717,5.619,5.619,0,0,1,.578,2.558v.668a5.609,5.609,0,0,1-.57,2.592,4.05,4.05,0,0,1-1.631,1.712,5.093,5.093,0,0,1-2.468.609Zm1.378-9.331v8.2h1.452a3.143,3.143,0,0,0,2.479-.993,4.087,4.087,0,0,0,.89-2.825V350.4a4.161,4.161,0,0,0-.837-2.769,2.976,2.976,0,0,0-2.375-1Z" transform="translate(-472.447 -157.847)" fill="#656566"/>
      <path id="Path_183" data-name="Path 183" d="M721.436,349.378a3.806,3.806,0,0,0-.652-.049,1.752,1.752,0,0,0-1.775,1.113v5.517h-1.328v-7.771h1.292l.021.9a2.068,2.068,0,0,1,1.854-1.039,1.359,1.359,0,0,1,.588.1Z" transform="translate(-472.447 -157.847)" fill="#656566"/>
      <path id="Path_184" data-name="Path 184" d="M722.764,346.124a.79.79,0,0,1,.2-.544.744.744,0,0,1,.585-.224.762.762,0,0,1,.591.224.782.782,0,0,1,.2.544.761.761,0,0,1-.2.539.772.772,0,0,1-.591.215.754.754,0,0,1-.585-.215.768.768,0,0,1-.2-.539m1.437,9.834h-1.328v-7.772H724.2Z" transform="translate(-472.447 -157.847)" fill="#656566"/>
      <path id="Path_185" data-name="Path 185" d="M728.979,354.155l1.924-5.97h1.359l-2.788,7.773h-1.013l-2.814-7.773H727Z" transform="translate(-472.447 -157.847)" fill="#656566"/>
      <path id="Path_186" data-name="Path 186" d="M736.617,356.1a3.4,3.4,0,0,1-2.571-1.038,3.853,3.853,0,0,1-.991-2.775v-.245a4.662,4.662,0,0,1,.442-2.065,3.434,3.434,0,0,1,1.236-1.422,3.091,3.091,0,0,1,1.72-.515,2.91,2.91,0,0,1,2.356,1,4.332,4.332,0,0,1,.841,2.859v.553h-5.267a2.761,2.761,0,0,0,.673,1.856,2.1,2.1,0,0,0,1.632.709,2.324,2.324,0,0,0,1.2-.287,3.053,3.053,0,0,0,.854-.762l.811.63a3.259,3.259,0,0,1-2.931,1.5m-.164-6.969a1.784,1.784,0,0,0-1.351.586,2.854,2.854,0,0,0-.675,1.643h3.892v-.1a2.531,2.531,0,0,0-.545-1.568,1.67,1.67,0,0,0-1.321-.557" transform="translate(-472.447 -157.847)" fill="#656566"/>
      <path id="Path_187" data-name="Path 187" d="M742.628,348.186l.041.976a2.838,2.838,0,0,1,2.329-1.12q2.465,0,2.485,2.78v5.136h-1.329v-5.144a1.788,1.788,0,0,0-.383-1.241,1.537,1.537,0,0,0-1.174-.4,1.9,1.9,0,0,0-1.135.349,2.318,2.318,0,0,0-.762.9v5.537h-1.328v-7.772Z" transform="translate(-472.447 -157.847)" fill="#656566"/>
      <path id="Path_188" data-name="Path 188" d="M749.625,355.26a.818.818,0,0,1,.2-.571.779.779,0,0,1,.615-.231.765.765,0,0,1,.833.8.772.772,0,0,1-.213.555.819.819,0,0,1-.62.222.8.8,0,0,1-.615-.222.786.786,0,0,1-.2-.555" transform="translate(-472.447 -157.847)" fill="#656566"/>
      <path id="Path_189" data-name="Path 189" d="M761.405,345.5h1.387v7.408a3.063,3.063,0,0,1-.9,2.347,3.355,3.355,0,0,1-2.4.849,3.463,3.463,0,0,1-2.428-.8,2.882,2.882,0,0,1-.871-2.232h1.381a1.737,1.737,0,0,0,1.918,1.9,1.853,1.853,0,0,0,1.382-.539,2.09,2.09,0,0,0,.535-1.51Z" transform="translate(-472.447 -157.847)" fill="#656566"/>
      <path id="Path_190" data-name="Path 190" d="M764.7,352a4.583,4.583,0,0,1,.449-2.054,3.316,3.316,0,0,1,1.249-1.407,3.4,3.4,0,0,1,1.827-.5,3.276,3.276,0,0,1,2.569,1.1,4.231,4.231,0,0,1,.982,2.922v.093a4.63,4.63,0,0,1-.436,2.038,3.309,3.309,0,0,1-1.243,1.406,3.468,3.468,0,0,1-1.855.5,3.266,3.266,0,0,1-2.56-1.1,4.2,4.2,0,0,1-.982-2.91Zm1.336.157a3.322,3.322,0,0,0,.6,2.077,2.032,2.032,0,0,0,3.213-.01,3.622,3.622,0,0,0,.6-2.224,3.328,3.328,0,0,0-.607-2.073,1.933,1.933,0,0,0-1.615-.793,1.9,1.9,0,0,0-1.585.783,3.609,3.609,0,0,0-.6,2.24" transform="translate(-472.447 -157.847)" fill="#656566"/>
      <path id="Path_191" data-name="Path 191" d="M780.12,352.158a4.612,4.612,0,0,1-.819,2.863,2.616,2.616,0,0,1-2.2,1.08,2.711,2.711,0,0,1-2.278-1.04l-.063.9h-1.222V344.924h1.328v4.117a2.7,2.7,0,0,1,2.221-1,2.633,2.633,0,0,1,2.222,1.07,4.759,4.759,0,0,1,.808,2.932Zm-1.329-.15a3.586,3.586,0,0,0-.524-2.1,1.734,1.734,0,0,0-1.509-.744,1.952,1.952,0,0,0-1.889,1.223v3.363a2.007,2.007,0,0,0,1.9,1.221,1.728,1.728,0,0,0,1.487-.741,3.817,3.817,0,0,0,.531-2.226" transform="translate(-472.447 -157.847)" fill="#656566"/>
      <path id="Path_192" data-name="Path 192" d="M786.735,354.83h4.956v1.128H785.35V345.5h1.385Z" transform="translate(-472.447 -157.847)" fill="#656566"/>
      <path id="Path_193" data-name="Path 193" d="M796.325,356.1a3.4,3.4,0,0,1-2.569-1.038,3.85,3.85,0,0,1-.993-2.775v-.245a4.649,4.649,0,0,1,.443-2.065,3.446,3.446,0,0,1,1.235-1.422,3.093,3.093,0,0,1,1.72-.515,2.914,2.914,0,0,1,2.357,1,4.331,4.331,0,0,1,.84,2.859v.553h-5.266a2.756,2.756,0,0,0,.672,1.856,2.1,2.1,0,0,0,1.633.709,2.319,2.319,0,0,0,1.193-.287,3.042,3.042,0,0,0,.855-.762l.81.63a3.256,3.256,0,0,1-2.93,1.5m-.164-6.969a1.784,1.784,0,0,0-1.351.586,2.847,2.847,0,0,0-.674,1.643h3.892v-.1a2.543,2.543,0,0,0-.545-1.568,1.672,1.672,0,0,0-1.322-.557" transform="translate(-472.447 -157.847)" fill="#656566"/>
      <path id="Path_194" data-name="Path 194" d="M800.758,352.008a4.557,4.557,0,0,1,.847-2.878,2.883,2.883,0,0,1,4.383-.152v-4.054h1.327v11.034h-1.22l-.066-.833a2.706,2.706,0,0,1-2.22.976,2.654,2.654,0,0,1-2.2-1.1,4.6,4.6,0,0,1-.851-2.888Zm1.328.149a3.447,3.447,0,0,0,.547,2.07,1.761,1.761,0,0,0,1.508.748,1.942,1.942,0,0,0,1.847-1.135v-3.57a1.959,1.959,0,0,0-1.833-1.1,1.769,1.769,0,0,0-1.522.756,3.8,3.8,0,0,0-.547,2.233" transform="translate(-472.447 -157.847)" fill="#656566"/>
    </g>
  </g>
</svg>
